<svg xmlns="http://www.w3.org/2000/svg" width="860" height="150" viewBox="0 0 860 150" role="img" aria-label="GitHub at a glance"><rect width="860" height="150" rx="10" fill="#0B1F33"/><text x="26" y="36" font-family="Georgia,'Times New Roman',serif" font-size="19" font-weight="700" fill="#F3EBDD">GitHub at a glance</text><rect x="26" y="46" width="34" height="2" fill="#C9A464"/><text x="26" y="104" font-family="Georgia,'Times New Roman',serif" font-size="40" font-weight="700" fill="#F3EBDD">10</text><text x="26" y="124" font-family="ui-monospace,'SF Mono',Menlo,Consolas,monospace" font-size="12" fill="#D8CDB8">stars</text><text x="156" y="104" font-family="Georgia,'Times New Roman',serif" font-size="40" font-weight="700" fill="#F3EBDD">18</text><text x="156" y="124" font-family="ui-monospace,'SF Mono',Menlo,Consolas,monospace" font-size="12" fill="#D8CDB8">public repos</text><text x="286" y="104" font-family="Georgia,'Times New Roman',serif" font-size="40" font-weight="700" fill="#F3EBDD">66</text><text x="286" y="124" font-family="ui-monospace,'SF Mono',Menlo,Consolas,monospace" font-size="12" fill="#D8CDB8">pull requests</text><rect x="416" y="66" width="1" height="62" fill="#1B3F6B"/><text x="446" y="76" font-family="ui-monospace,'SF Mono',Menlo,Consolas,monospace" font-size="12" fill="#D8CDB8">languages, by bytes</text><rect x="446.0" y="86" width="299.2" height="10" rx="2" fill="#C9A464"/><rect x="747.2" y="86" width="41.5" height="10" rx="2" fill="#F3EBDD"/><rect x="790.7" y="86" width="16.9" height="10" rx="2" fill="#7C93AE"/><rect x="809.5" y="86" width="8.9" height="10" rx="2" fill="#2A5F8F"/><rect x="820.5" y="86" width="11.5" height="10" rx="2" fill="#D8CDB8"/><circle cx="450.0" cy="114" r="4" fill="#C9A464"/><text x="460.0" y="118" font-family="ui-monospace,'SF Mono',Menlo,Consolas,monospace" font-size="12" fill="#D8CDB8">Python 78%</text><circle cx="579.3" cy="114" r="4" fill="#F3EBDD"/><text x="589.3" y="118" font-family="ui-monospace,'SF Mono',Menlo,Consolas,monospace" font-size="12" fill="#D8CDB8">TypeScript 11%</text><circle cx="708.7" cy="114" r="4" fill="#7C93AE"/><text x="718.7" y="118" font-family="ui-monospace,'SF Mono',Menlo,Consolas,monospace" font-size="12" fill="#D8CDB8">Lua 5%</text><circle cx="450.0" cy="132" r="4" fill="#2A5F8F"/><text x="460.0" y="136" font-family="ui-monospace,'SF Mono',Menlo,Consolas,monospace" font-size="12" fill="#D8CDB8">Jupyter 3%</text><circle cx="579.3" cy="132" r="4" fill="#D8CDB8"/><text x="589.3" y="136" font-family="ui-monospace,'SF Mono',Menlo,Consolas,monospace" font-size="12" fill="#D8CDB8">other 3%</text><text x="834" y="36" font-family="Georgia,'Times New Roman',serif" font-style="italic" font-size="10" fill="#7C93AE" text-anchor="end">updated 2026-09-07</text></svg>